<svg width="81" height="18" fill="none" xmlns="http://www.w3.org/2000/svg"><path fill-rule="evenodd" clip-rule="evenodd" d="M4.234 10.3l-.78 1.465v4.926H.935V.655h2.52v6.987l3.3-6.987h2.52L5.769 7.802l3.505 8.889h-2.59l-2.45-6.392zm8.597 2.702c0 .58.118.99.355 1.226.237.237.554.355.95.355.398 0 .715-.118.952-.355.236-.237.355-.645.355-1.226v-8.66c0-.58-.119-.988-.355-1.225-.237-.236-.554-.355-.951-.355-.397 0-.714.119-.95.355-.238.237-.356.646-.356 1.226v8.66zm-2.52-8.499c0-1.298.329-2.294.985-2.99C11.953.82 12.9.472 14.136.472c1.238 0 2.185.348 2.842 1.043.656.695.985 1.691.985 2.99v8.338c0 1.298-.329 2.295-.985 2.99-.657.695-1.604 1.042-2.841 1.042s-2.184-.347-2.84-1.042c-.658-.695-.986-1.692-.986-2.99v-8.34zm11.782.573v11.615h-2.268V.655h3.161l2.589 9.598V.655h2.245V16.69h-2.589L22.093 5.076zm7.475-.573c0-1.298.31-2.294.928-2.99C31.114.82 32.042.472 33.279.472c1.237 0 2.165.348 2.784 1.043.618.695.927 1.691.927 2.99v.503h-2.382v-.664c0-.58-.11-.989-.332-1.226-.222-.236-.531-.355-.928-.355s-.706.119-.928.355c-.221.237-.332.646-.332 1.226 0 .55.122 1.035.367 1.455.244.42.55.817.916 1.19.366.375.76.75 1.18 1.123.42.375.813.783 1.18 1.226.366.443.672.947.916 1.512.244.565.366 1.23.366 1.993 0 1.298-.316 2.295-.95 2.99-.634.695-1.57 1.042-2.807 1.042-1.237 0-2.172-.347-2.806-1.042-.634-.695-.95-1.692-.95-2.99v-.985h2.382v1.146c0 .58.118.985.355 1.214.237.229.553.343.95.343.398 0 .715-.114.951-.343.237-.23.355-.634.355-1.215 0-.55-.122-1.034-.366-1.454a6.055 6.055 0 00-.916-1.191c-.367-.375-.76-.749-1.18-1.123-.42-.374-.814-.783-1.18-1.226a6.238 6.238 0 01-.916-1.512c-.245-.565-.367-1.23-.367-1.993zM37.982.655h7.789v2.29h-2.635v13.746h-2.52V2.945h-2.634V.655zM52.398 16.69a7.342 7.342 0 00-.091-.298 2.303 2.303 0 01-.08-.344 4.222 4.222 0 01-.046-.526 22.986 22.986 0 01-.012-.802V12.2c0-.749-.13-1.276-.39-1.581-.259-.305-.679-.458-1.26-.458h-.87v6.529h-2.52V.655h3.803c1.314 0 2.264.305 2.852.916.588.61.882 1.535.882 2.772v1.26c0 1.65-.55 2.734-1.65 3.253.642.26 1.081.683 1.318 1.271.237.588.355 1.302.355 2.142v2.475c0 .397.016.744.046 1.042.03.298.107.6.23.905h-2.567zM49.65 2.945v4.926h.985c.474 0 .844-.122 1.111-.367.268-.244.401-.687.401-1.328V4.595c0-.58-.103-1-.309-1.26-.206-.26-.53-.39-.974-.39H49.65zm9.354-2.29v12.37c0 .58.118.986.355 1.215.236.229.553.343.95.343.398 0 .715-.114.951-.343.237-.23.355-.634.355-1.215V.655h2.383v12.21c0 1.298-.317 2.295-.95 2.99-.635.695-1.57 1.042-2.807 1.042-1.237 0-2.173-.347-2.807-1.042-.633-.695-.95-1.692-.95-2.99V.655h2.52zm13.856 0h7.79v2.29h-2.635v13.746h-2.52V2.945H72.86V.655z" fill="#171819"/><path fill-rule="evenodd" clip-rule="evenodd" d="M65.194 8.988L71.739.807V17.17l-6.545-8.182z" fill="#00A4E5"/></svg>