<svg width="103" height="23" fill="none" xmlns="http://www.w3.org/2000/svg"><path fill-rule="evenodd" clip-rule="evenodd" d="M5.132 13.16l-.995 1.874v6.293H.916V.837h3.22v8.928L8.351.836h3.22L7.093 9.97l4.479 11.358H8.264L5.132 13.16zm10.985 3.454c0 .742.152 1.264.454 1.566.303.303.707.454 1.215.454.507 0 .912-.151 1.215-.454.302-.302.453-.824.453-1.566V5.55c0-.741-.15-1.263-.453-1.566-.303-.302-.708-.454-1.215-.454-.508 0-.912.152-1.215.454-.302.303-.454.825-.454 1.566v11.065zm-3.22-10.86c0-1.659.42-2.932 1.26-3.82.838-.888 2.048-1.332 3.629-1.332 1.58 0 2.79.444 3.63 1.332.839.888 1.259 2.161 1.259 3.82V16.41c0 1.66-.42 2.933-1.26 3.82-.838.889-2.048 1.332-3.629 1.332-1.58 0-2.79-.444-3.63-1.331-.839-.888-1.258-2.162-1.258-3.82V5.753zm15.055.732v14.841h-2.898V.837h4.04L32.4 13.101V.836h2.869v20.491h-3.308l-4.01-14.841zm9.551-.732c0-1.659.395-2.932 1.186-3.82.79-.888 1.976-1.332 3.556-1.332 1.581 0 2.767.444 3.557 1.332.79.888 1.186 2.161 1.186 3.82v.644h-3.045V5.55c0-.741-.141-1.263-.424-1.566-.283-.302-.678-.454-1.186-.454-.507 0-.902.152-1.185.454-.283.303-.425.825-.425 1.566 0 .703.157 1.322.469 1.86a7.742 7.742 0 001.17 1.521c.469.478.971.957 1.508 1.435.537.478 1.04 1 1.508 1.566.468.566.858 1.21 1.17 1.932.313.722.469 1.57.469 2.546 0 1.66-.405 2.933-1.215 3.82-.81.889-2.005 1.332-3.586 1.332-1.58 0-2.776-.444-3.586-1.331-.81-.888-1.215-2.162-1.215-3.82v-1.26h3.045v1.464c0 .742.151 1.26.454 1.552.302.293.707.439 1.214.439.508 0 .913-.146 1.215-.44.303-.292.454-.81.454-1.55 0-.703-.156-1.323-.468-1.86a7.735 7.735 0 00-1.171-1.522A30.804 30.804 0 0040.65 11.8c-.536-.478-1.039-1-1.507-1.566A7.975 7.975 0 0137.972 8.3c-.313-.722-.469-1.571-.469-2.547zM48.255.836h9.952v2.928h-3.366v17.563h-3.22V3.764h-3.366V.836zm18.42 20.491a9.056 9.056 0 00-.117-.38 2.958 2.958 0 01-.102-.44c-.03-.175-.049-.4-.059-.673-.01-.273-.014-.614-.014-1.024v-3.22c0-.956-.166-1.63-.498-2.02-.332-.39-.868-.585-1.61-.585h-1.112v8.342h-3.22V.837h4.86c1.678 0 2.892.39 3.644 1.17.751.78 1.127 1.962 1.127 3.542v1.61c0 2.108-.703 3.494-2.108 4.157.82.332 1.38.873 1.683 1.625.303.751.454 1.663.454 2.737v3.161c0 .508.02.951.059 1.332.038.38.136.766.292 1.156h-3.278zM63.164 3.764v6.293h1.258c.605 0 1.079-.156 1.42-.468.342-.312.513-.878.513-1.698v-2.02c0-.741-.132-1.278-.396-1.61-.263-.331-.678-.497-1.244-.497h-1.551zM75.115.836v15.808c0 .741.15 1.258.453 1.551.303.293.708.44 1.215.44.507 0 .912-.147 1.215-.44.302-.293.454-.81.454-1.551V.836h3.044V16.44c0 1.659-.405 2.932-1.215 3.82-.81.888-2.005 1.332-3.586 1.332-1.58 0-2.776-.444-3.586-1.332-.81-.888-1.215-2.162-1.215-3.82V.836h3.22zm17.705 0h9.953v2.928h-3.366v17.563h-3.22V3.764H92.82V.836z" fill="#fff"/><path fill-rule="evenodd" clip-rule="evenodd" d="M83.025 11.485L91.39 1.031V21.94l-8.364-10.455z" fill="#00A4E5"/></svg>